<svg width="214" height="32" viewBox="0 0 214 32" fill="none" xmlns="http://www.w3.org/2000/svg">
<path d="M36.1136 23V5.54547H46.5795V7.42047H38.2273V13.3182H45.7955V15.1932H38.2273V23H36.1136ZM54.2841 23.2727C53.1023 23.2727 52.0653 22.9915 51.1733 22.429C50.2869 21.8665 49.5938 21.0796 49.0938 20.0682C48.5994 19.0568 48.3523 17.875 48.3523 16.5227C48.3523 15.1591 48.5994 13.9688 49.0938 12.9517C49.5938 11.9347 50.2869 11.1449 51.1733 10.5824C52.0653 10.0199 53.1023 9.73865 54.2841 9.73865C55.4659 9.73865 56.5 10.0199 57.3864 10.5824C58.2784 11.1449 58.9716 11.9347 59.4659 12.9517C59.9659 13.9688 60.2159 15.1591 60.2159 16.5227C60.2159 17.875 59.9659 19.0568 59.4659 20.0682C58.9716 21.0796 58.2784 21.8665 57.3864 22.429C56.5 22.9915 55.4659 23.2727 54.2841 23.2727ZM54.2841 21.4659C55.1818 21.4659 55.9205 21.2358 56.5 20.7756C57.0795 20.3154 57.5085 19.7102 57.7869 18.9602C58.0653 18.2102 58.2045 17.3977 58.2045 16.5227C58.2045 15.6477 58.0653 14.8324 57.7869 14.0767C57.5085 13.321 57.0795 12.7102 56.5 12.2443C55.9205 11.7784 55.1818 11.5455 54.2841 11.5455C53.3864 11.5455 52.6477 11.7784 52.0682 12.2443C51.4886 12.7102 51.0597 13.321 50.7812 14.0767C50.5028 14.8324 50.3636 15.6477 50.3636 16.5227C50.3636 17.3977 50.5028 18.2102 50.7812 18.9602C51.0597 19.7102 51.4886 20.3154 52.0682 20.7756C52.6477 21.2358 53.3864 21.4659 54.2841 21.4659ZM64.2472 9.90911L67.3835 15.2614L70.5199 9.90911H72.8381L68.6108 16.4546L72.8381 23H70.5199L67.3835 17.9205L64.2472 23H61.929L66.0881 16.4546L61.929 9.90911H64.2472ZM82.7308 23V5.54547H93.1967V7.42047H84.8445V13.3182H92.4126V15.1932H84.8445V23H82.7308ZM100.901 23.2727C99.7195 23.2727 98.6825 22.9915 97.7905 22.429C96.9041 21.8665 96.2109 21.0796 95.7109 20.0682C95.2166 19.0568 94.9695 17.875 94.9695 16.5227C94.9695 15.1591 95.2166 13.9688 95.7109 12.9517C96.2109 11.9347 96.9041 11.1449 97.7905 10.5824C98.6825 10.0199 99.7195 9.73865 100.901 9.73865C102.083 9.73865 103.117 10.0199 104.004 10.5824C104.896 11.1449 105.589 11.9347 106.083 12.9517C106.583 13.9688 106.833 15.1591 106.833 16.5227C106.833 17.875 106.583 19.0568 106.083 20.0682C105.589 21.0796 104.896 21.8665 104.004 22.429C103.117 22.9915 102.083 23.2727 100.901 23.2727ZM100.901 21.4659C101.799 21.4659 102.538 21.2358 103.117 20.7756C103.697 20.3154 104.126 19.7102 104.404 18.9602C104.683 18.2102 104.822 17.3977 104.822 16.5227C104.822 15.6477 104.683 14.8324 104.404 14.0767C104.126 13.321 103.697 12.7102 103.117 12.2443C102.538 11.7784 101.799 11.5455 100.901 11.5455C100.004 11.5455 99.2649 11.7784 98.6854 12.2443C98.1058 12.7102 97.6768 13.321 97.3984 14.0767C97.12 14.8324 96.9808 15.6477 96.9808 16.5227C96.9808 17.3977 97.12 18.2102 97.3984 18.9602C97.6768 19.7102 98.1058 20.3154 98.6854 20.7756C99.2649 21.2358 100.004 21.4659 100.901 21.4659ZM118.153 17.6477V9.90911H120.165V23H118.153V20.7841H118.017C117.71 21.4489 117.233 22.0142 116.585 22.4801C115.938 22.9404 115.119 23.1705 114.131 23.1705C113.312 23.1705 112.585 22.9915 111.949 22.6335C111.313 22.2699 110.813 21.7244 110.449 20.9972C110.085 20.2642 109.903 19.3409 109.903 18.2273V9.90911H111.915V18.0909C111.915 19.0455 112.182 19.8068 112.716 20.375C113.256 20.9432 113.943 21.2273 114.778 21.2273C115.278 21.2273 115.787 21.0994 116.304 20.8438C116.827 20.5881 117.264 20.196 117.616 19.6676C117.974 19.1392 118.153 18.4659 118.153 17.6477ZM125.86 15.125V23H123.849V9.90911H125.792V11.9546H125.962C126.269 11.2898 126.735 10.7557 127.36 10.3523C127.985 9.9432 128.792 9.73865 129.781 9.73865C130.667 9.73865 131.442 9.92047 132.107 10.2841C132.772 10.6421 133.289 11.1875 133.658 11.9205C134.028 12.6477 134.212 13.5682 134.212 14.6818V23H132.201V14.8182C132.201 13.7898 131.934 12.9887 131.4 12.4148C130.866 11.8352 130.133 11.5455 129.201 11.5455C128.559 11.5455 127.985 11.6847 127.479 11.9631C126.979 12.2415 126.585 12.6477 126.295 13.1818C126.005 13.7159 125.86 14.3637 125.86 15.125ZM142.831 23.2727C141.74 23.2727 140.777 22.9972 139.942 22.446C139.107 21.8892 138.453 21.1051 137.982 20.0938C137.51 19.0767 137.274 17.875 137.274 16.4887C137.274 15.1137 137.51 13.9205 137.982 12.9091C138.453 11.8977 139.109 11.1165 139.95 10.5654C140.791 10.0142 141.763 9.73865 142.865 9.73865C143.717 9.73865 144.391 9.8807 144.885 10.1648C145.385 10.4432 145.766 10.7614 146.027 11.1193C146.294 11.4716 146.501 11.7614 146.649 11.9887H146.82V5.54547H148.831V23H146.888V20.9887H146.649C146.501 21.2273 146.291 21.5284 146.018 21.8921C145.746 22.25 145.357 22.571 144.851 22.8551C144.345 23.1335 143.672 23.2727 142.831 23.2727ZM143.104 21.4659C143.911 21.4659 144.592 21.2557 145.149 20.8352C145.706 20.4091 146.129 19.821 146.419 19.071C146.709 18.3154 146.854 17.4432 146.854 16.4546C146.854 15.4773 146.712 14.6222 146.428 13.8892C146.143 13.1506 145.723 12.5767 145.166 12.1676C144.609 11.7529 143.922 11.5455 143.104 11.5455C142.251 11.5455 141.541 11.7642 140.973 12.2017C140.411 12.6335 139.987 13.2216 139.703 13.9659C139.425 14.7046 139.286 15.5341 139.286 16.4546C139.286 17.3864 139.428 18.233 139.712 18.9943C140.001 19.75 140.428 20.3523 140.99 20.8012C141.558 21.2443 142.263 21.4659 143.104 21.4659ZM156.646 23.3068C155.817 23.3068 155.064 23.1506 154.388 22.8381C153.712 22.5199 153.175 22.0625 152.777 21.4659C152.379 20.8637 152.18 20.1364 152.18 19.2841C152.18 18.5341 152.328 17.9262 152.624 17.4602C152.919 16.9887 153.314 16.6193 153.808 16.3523C154.303 16.0852 154.848 15.8864 155.445 15.7557C156.047 15.6193 156.652 15.5114 157.26 15.4318C158.055 15.3296 158.7 15.2529 159.195 15.2017C159.695 15.1449 160.058 15.0512 160.286 14.9205C160.518 14.7898 160.635 14.5625 160.635 14.2387V14.1705C160.635 13.3296 160.405 12.6762 159.945 12.2102C159.49 11.7443 158.8 11.5114 157.874 11.5114C156.913 11.5114 156.161 11.7216 155.615 12.1421C155.07 12.5625 154.686 13.0114 154.464 13.4887L152.555 12.8068C152.896 12.0114 153.351 11.3921 153.919 10.9489C154.493 10.5 155.118 10.1875 155.794 10.0114C156.476 9.82956 157.146 9.73865 157.805 9.73865C158.226 9.73865 158.709 9.78979 159.254 9.89206C159.805 9.98865 160.337 10.1904 160.848 10.4972C161.365 10.804 161.794 11.2671 162.135 11.8864C162.476 12.5057 162.646 13.3352 162.646 14.375V23H160.635V21.2273H160.533C160.396 21.5114 160.169 21.8154 159.851 22.1392C159.533 22.4631 159.109 22.7387 158.581 22.9659C158.053 23.1932 157.408 23.3068 156.646 23.3068ZM156.953 21.5C157.749 21.5 158.419 21.3438 158.964 21.0313C159.516 20.7188 159.93 20.3154 160.209 19.821C160.493 19.3267 160.635 18.8068 160.635 18.2614V16.4205C160.55 16.5227 160.362 16.6165 160.072 16.7017C159.788 16.7813 159.459 16.8523 159.084 16.9148C158.714 16.9716 158.354 17.0227 158.001 17.0682C157.655 17.108 157.374 17.1421 157.158 17.1705C156.635 17.2387 156.146 17.3494 155.692 17.5029C155.243 17.6506 154.879 17.875 154.601 18.1762C154.328 18.4716 154.192 18.875 154.192 19.3864C154.192 20.0852 154.45 20.6137 154.967 20.9716C155.49 21.3239 156.152 21.5 156.953 21.5ZM172.011 9.90911V11.6137H165.227V9.90911H172.011ZM167.204 6.77274H169.215V19.25C169.215 19.8182 169.298 20.2443 169.462 20.5284C169.633 20.8068 169.849 20.9943 170.11 21.0909C170.377 21.1818 170.658 21.2273 170.954 21.2273C171.175 21.2273 171.357 21.2159 171.499 21.1932C171.641 21.1648 171.755 21.1421 171.84 21.125L172.249 22.9318C172.113 22.983 171.923 23.0341 171.678 23.0852C171.434 23.1421 171.124 23.1705 170.749 23.1705C170.181 23.1705 169.624 23.0483 169.079 22.804C168.539 22.5597 168.09 22.1875 167.732 21.6875C167.38 21.1875 167.204 20.5568 167.204 19.7955V6.77274ZM175.036 23V9.90911H177.048V23H175.036ZM176.059 7.72729C175.667 7.72729 175.329 7.59377 175.045 7.32672C174.766 7.05967 174.627 6.73865 174.627 6.36365C174.627 5.98865 174.766 5.66763 175.045 5.40058C175.329 5.13354 175.667 5.00002 176.059 5.00002C176.451 5.00002 176.786 5.13354 177.065 5.40058C177.349 5.66763 177.491 5.98865 177.491 6.36365C177.491 6.73865 177.349 7.05967 177.065 7.32672C176.786 7.59377 176.451 7.72729 176.059 7.72729ZM186.05 23.2727C184.868 23.2727 183.831 22.9915 182.939 22.429C182.053 21.8665 181.359 21.0796 180.859 20.0682C180.365 19.0568 180.118 17.875 180.118 16.5227C180.118 15.1591 180.365 13.9688 180.859 12.9517C181.359 11.9347 182.053 11.1449 182.939 10.5824C183.831 10.0199 184.868 9.73865 186.05 9.73865C187.232 9.73865 188.266 10.0199 189.152 10.5824C190.044 11.1449 190.737 11.9347 191.232 12.9517C191.732 13.9688 191.982 15.1591 191.982 16.5227C191.982 17.875 191.732 19.0568 191.232 20.0682C190.737 21.0796 190.044 21.8665 189.152 22.429C188.266 22.9915 187.232 23.2727 186.05 23.2727ZM186.05 21.4659C186.947 21.4659 187.686 21.2358 188.266 20.7756C188.845 20.3154 189.274 19.7102 189.553 18.9602C189.831 18.2102 189.97 17.3977 189.97 16.5227C189.97 15.6477 189.831 14.8324 189.553 14.0767C189.274 13.321 188.845 12.7102 188.266 12.2443C187.686 11.7784 186.947 11.5455 186.05 11.5455C185.152 11.5455 184.413 11.7784 183.834 12.2443C183.254 12.7102 182.825 13.321 182.547 14.0767C182.268 14.8324 182.129 15.6477 182.129 16.5227C182.129 17.3977 182.268 18.2102 182.547 18.9602C182.825 19.7102 183.254 20.3154 183.834 20.7756C184.413 21.2358 185.152 21.4659 186.05 21.4659ZM197.063 15.125V23H195.052V9.90911H196.995V11.9546H197.165C197.472 11.2898 197.938 10.7557 198.563 10.3523C199.188 9.9432 199.995 9.73865 200.984 9.73865C201.87 9.73865 202.646 9.92047 203.31 10.2841C203.975 10.6421 204.492 11.1875 204.862 11.9205C205.231 12.6477 205.415 13.5682 205.415 14.6818V23H203.404V14.8182C203.404 13.7898 203.137 12.9887 202.603 12.4148C202.069 11.8352 201.336 11.5455 200.404 11.5455C199.762 11.5455 199.188 11.6847 198.683 11.9631C198.183 12.2415 197.788 12.6477 197.498 13.1818C197.208 13.7159 197.063 14.3637 197.063 15.125Z" fill="white"/>
<path d="M4.47033 4.00202L14.845 7.80045L7.10219 14.7322L4.47033 4.00202Z" fill="#D96714"/>
<path d="M31.9791 5.77528L27.3654 15.814L21.0733 7.54299L31.9791 5.77528Z" fill="#D96714"/>
<ellipse cx="17.5" cy="16" rx="10.5" ry="10" fill="#D96714"/>
<line x1="12" y1="12.5" x2="17" y2="12.5" stroke="black"/>
<line x1="20" y1="12.5" x2="25" y2="12.5" stroke="black"/>
<path d="M18.0024 22.3005L14.5437 16.8245L21.476 16.834L18.0024 22.3005Z" fill="black"/>
</svg>
