<svg width="24" height="18" viewBox="0 0 24 18" fill="none" xmlns="http://www.w3.org/2000/svg">
<path d="M20.317 1.492C18.787 0.802004 17.147 0.292004 15.432 0.00200412C15.4167 -0.000927963 15.4009 0.000961578 15.3868 0.00741145C15.3726 0.0138613 15.3608 0.0245524 15.353 0.0380041C15.143 0.407004 14.909 0.888004 14.745 1.268C12.9261 0.996241 11.0769 0.996241 9.258 1.268C9.07533 0.846865 8.86935 0.436228 8.641 0.0380041C8.63326 0.0243868 8.62155 0.0134539 8.60744 0.00666425C8.59332 -0.00012538 8.57747 -0.00244886 8.562 4.02814e-06C6.848 0.290004 5.208 0.800004 3.677 1.491C3.66383 1.49653 3.65266 1.50595 3.645 1.518C0.533 6.093 -0.32 10.555 0.099 14.961C0.100166 14.9718 0.103516 14.9822 0.108845 14.9917C0.114174 15.0011 0.121372 15.0094 0.13 15.016C1.94639 16.3384 3.97234 17.3458 6.123 17.996C6.13799 18.0006 6.15403 18.0006 6.16901 17.996C6.184 17.9913 6.19724 17.9823 6.207 17.97C6.66979 17.3511 7.0799 16.6944 7.433 16.007C7.4379 15.9976 7.44073 15.9873 7.44128 15.9767C7.44184 15.9661 7.44012 15.9555 7.43623 15.9457C7.43234 15.9358 7.42638 15.9269 7.41875 15.9195C7.41112 15.9122 7.402 15.9065 7.392 15.903C6.746 15.6597 6.12008 15.3662 5.52 15.025C5.50922 15.0188 5.50013 15.0101 5.49356 14.9996C5.48698 14.989 5.48313 14.977 5.48233 14.9647C5.48154 14.9523 5.48384 14.9399 5.48901 14.9286C5.49419 14.9173 5.50209 14.9075 5.512 14.9C5.638 14.807 5.764 14.71 5.884 14.613C5.8948 14.6043 5.90781 14.5987 5.92158 14.597C5.93536 14.5952 5.94935 14.5973 5.962 14.603C9.889 16.367 14.142 16.367 18.023 14.603C18.0357 14.5969 18.0498 14.5946 18.0638 14.5962C18.0778 14.5978 18.091 14.6032 18.102 14.612C18.222 14.71 18.347 14.807 18.474 14.9C18.484 14.9073 18.492 14.917 18.4974 14.9282C18.5027 14.9394 18.5052 14.9517 18.5046 14.9641C18.504 14.9765 18.5004 14.9885 18.494 14.9992C18.4876 15.0098 18.4787 15.0187 18.468 15.025C17.87 15.369 17.248 15.66 16.595 15.902C16.585 15.9056 16.5758 15.9114 16.5682 15.9188C16.5606 15.9263 16.5546 15.9353 16.5507 15.9452C16.5468 15.9552 16.5451 15.9658 16.5457 15.9765C16.5463 15.9871 16.5491 15.9975 16.554 16.007C16.914 16.694 17.326 17.348 17.779 17.969C17.7884 17.9817 17.8015 17.9913 17.8166 17.9963C17.8316 18.0013 17.8478 18.0015 17.863 17.997C20.0174 17.3486 22.0466 16.3408 23.865 15.016C23.8739 15.0098 23.8813 15.0018 23.8868 14.9925C23.8924 14.9831 23.8958 14.9728 23.897 14.962C24.397 9.868 23.059 5.442 20.348 1.52C20.3414 1.50726 20.3304 1.49732 20.317 1.492ZM8.02 12.278C6.838 12.278 5.863 11.209 5.863 9.898C5.863 8.586 6.819 7.518 8.02 7.518C9.23 7.518 10.196 8.595 10.177 9.898C10.177 11.21 9.221 12.278 8.02 12.278ZM15.995 12.278C14.812 12.278 13.838 11.209 13.838 9.898C13.838 8.586 14.793 7.518 15.995 7.518C17.205 7.518 18.171 8.595 18.152 9.898C18.152 11.21 17.206 12.278 15.995 12.278Z" fill="white"/>
</svg>
